<svg width="1200" height="630" viewBox="0 0 1200 630" xmlns="http://www.w3.org/2000/svg">
  <defs>
    <radialGradient id="glow-tg" cx="22%" cy="60%" r="55%">
      <stop offset="0%" stop-color="#f98b00" stop-opacity="0.2"/>
      <stop offset="100%" stop-color="#f98b00" stop-opacity="0"/>
    </radialGradient>
    <radialGradient id="glow-blue" cx="80%" cy="30%" r="50%">
      <stop offset="0%" stop-color="#229ed9" stop-opacity="0.12"/>
      <stop offset="100%" stop-color="#229ed9" stop-opacity="0"/>
    </radialGradient>
  </defs>

  <!-- Background -->
  <rect width="1200" height="630" fill="#060607"/>
  <rect width="1200" height="630" fill="url(#glow-tg)"/>
  <rect width="1200" height="630" fill="url(#glow-blue)"/>

  <!-- Декоративные кольца -->
  <circle cx="1090" cy="520" r="220" fill="none" stroke="#229ed9" stroke-opacity="0.07" stroke-width="1.5"/>
  <circle cx="1090" cy="520" r="155" fill="none" stroke="#229ed9" stroke-opacity="0.1" stroke-width="1.5"/>
  <circle cx="1090" cy="520" r="88" fill="none" stroke="#f98b00" stroke-opacity="0.12" stroke-width="1.5"/>

  <!-- Декоративный телефон / чат справа -->
  <rect x="710" y="60" width="240" height="420" rx="28" fill="#0e0e10" stroke="#229ed9" stroke-opacity="0.2" stroke-width="1.5"/>
  <!-- Камера телефона -->
  <rect x="790" y="76" width="80" height="12" rx="6" fill="#1a1a1f"/>
  <!-- Шапка Telegram чата -->
  <rect x="710" y="88" width="240" height="52" fill="#1a1a1f"/>
  <circle cx="738" cy="114" r="16" fill="#229ed9" fill-opacity="0.3"/>
  <text x="738" y="120" font-family="Inter, Arial, sans-serif" font-size="13" font-weight="700" fill="#229ed9" text-anchor="middle">TK</text>
  <rect x="764" y="104" width="100" height="11" rx="4" fill="#28282f"/>
  <rect x="764" y="122" width="72" height="9" rx="3" fill="#28282f"/>

  <!-- Сообщения в чате -->
  <!-- Входящее 1 -->
  <rect x="722" y="154" width="178" height="42" rx="12" fill="#1e1e24"/>
  <text x="738" y="174" font-family="Inter, Arial, sans-serif" font-size="12" fill="#c4c4c7">Привет! Хочу узнать</text>
  <text x="738" y="188" font-family="Inter, Arial, sans-serif" font-size="12" fill="#c4c4c7">про сайт 👋</text>

  <!-- Исходящее 1 (бот) -->
  <rect x="724" y="208" width="214" height="56" rx="12" fill="#f98b00" fill-opacity="0.15" stroke="#f98b00" stroke-opacity="0.3" stroke-width="1"/>
  <text x="738" y="228" font-family="Inter, Arial, sans-serif" font-size="12" fill="#f98b00" font-weight="600">🤖 Бот-консультант</text>
  <text x="738" y="244" font-family="Inter, Arial, sans-serif" font-size="11" fill="#c4c4c7">Привет! Выберите услугу:</text>
  <text x="738" y="258" font-family="Inter, Arial, sans-serif" font-size="10" fill="#8a8a90">только что</text>

  <!-- Кнопки бота -->
  <rect x="724" y="276" width="214" height="30" rx="8" fill="#229ed9" fill-opacity="0.2" stroke="#229ed9" stroke-opacity="0.4" stroke-width="1"/>
  <text x="831" y="296" font-family="Inter, Arial, sans-serif" font-size="12" fill="#229ed9" text-anchor="middle">Сайт на Tilda</text>

  <rect x="724" y="314" width="214" height="30" rx="8" fill="#229ed9" fill-opacity="0.2" stroke="#229ed9" stroke-opacity="0.4" stroke-width="1"/>
  <text x="831" y="334" font-family="Inter, Arial, sans-serif" font-size="12" fill="#229ed9" text-anchor="middle">ИИ-сайт</text>

  <rect x="724" y="352" width="214" height="30" rx="8" fill="#229ed9" fill-opacity="0.2" stroke="#229ed9" stroke-opacity="0.4" stroke-width="1"/>
  <text x="831" y="372" font-family="Inter, Arial, sans-serif" font-size="12" fill="#229ed9" text-anchor="middle">Telegram-бот</text>

  <!-- Исходящее от пользователя -->
  <rect x="748" y="394" width="190" height="36" rx="12" fill="#229ed9" fill-opacity="0.25"/>
  <text x="756" y="410" font-family="Inter, Arial, sans-serif" font-size="12" fill="#c4c4c7">Мне нужен сайт + бот</text>
  <text x="756" y="424" font-family="Inter, Arial, sans-serif" font-size="12" fill="#c4c4c7">для автосервиса</text>

  <!-- Индикатор набора -->
  <rect x="722" y="442" width="74" height="28" rx="14" fill="#1e1e24"/>
  <circle cx="742" cy="456" r="4" fill="#5a5a62"/>
  <circle cx="756" cy="456" r="4" fill="#5a5a62"/>
  <circle cx="770" cy="456" r="4" fill="#5a5a62"/>

  <!-- Второй телефон (слегка виден за первым) -->
  <rect x="960" y="100" width="200" height="360" rx="24" fill="#0c0c0e" stroke="#f98b00" stroke-opacity="0.12" stroke-width="1"/>
  <rect x="960" y="130" width="200" height="44" fill="#161618"/>
  <circle cx="984" cy="152" r="13" fill="#f98b00" fill-opacity="0.2"/>
  <text x="984" y="157" font-family="Inter, Arial, sans-serif" font-size="11" fill="#f98b00" text-anchor="middle">24/7</text>
  <rect x="1006" y="143" width="90" height="10" rx="3" fill="#1e1e24"/>
  <rect x="1006" y="160" width="64" height="8" rx="3" fill="#1e1e24"/>

  <!-- Маленькие декоративные точки -->
  <circle cx="662" cy="52" r="3.5" fill="#f98b00" fill-opacity="0.5"/>
  <circle cx="646" cy="70" r="2" fill="#f98b00" fill-opacity="0.3"/>
  <circle cx="680" cy="40" r="2.5" fill="#229ed9" fill-opacity="0.4"/>

  <!-- Логотип / бренд -->
  <rect x="60" y="52" width="100" height="38" rx="9" fill="#f98b00"/>
  <text x="110" y="77" font-family="Inter, Arial, sans-serif" font-size="17" font-weight="900" fill="#060607" text-anchor="middle" letter-spacing="1">TK WEB</text>

  <!-- Заголовок -->
  <text x="60" y="220" font-family="Inter, Arial, sans-serif" font-size="84" font-weight="900" fill="white" letter-spacing="-3">Telegram-боты</text>
  <text x="60" y="316" font-family="Inter, Arial, sans-serif" font-size="84" font-weight="900" fill="white" letter-spacing="-3">для <tspan fill="#f98b00">бизнеса</tspan></text>

  <!-- Оранжевая линия -->
  <rect x="60" y="348" width="90" height="5" rx="2.5" fill="#f98b00"/>

  <!-- Подзаголовок -->
  <text x="60" y="404" font-family="Inter, Arial, sans-serif" font-size="28" fill="#c4c4c7" font-weight="400">Заявки, запись и поддержка 24/7 — без людей</text>

  <!-- Теги -->
  <rect x="60" y="448" width="188" height="38" rx="19" fill="#1e1e24"/>
  <text x="154" y="473" font-family="Inter, Arial, sans-serif" font-size="15" fill="#c4c4c7" text-anchor="middle">Приём заявок</text>

  <rect x="260" y="448" width="188" height="38" rx="19" fill="#1e1e24"/>
  <text x="354" y="473" font-family="Inter, Arial, sans-serif" font-size="15" fill="#c4c4c7" text-anchor="middle">Онлайн-запись</text>

  <rect x="460" y="448" width="188" height="38" rx="19" fill="#1e1e24"/>
  <text x="554" y="473" font-family="Inter, Arial, sans-serif" font-size="15" fill="#c4c4c7" text-anchor="middle">от 15 000 ₽</text>

  <!-- Нижняя линия и домен -->
  <rect x="60" y="552" width="1080" height="1" fill="#1e1e24"/>
  <text x="60" y="585" font-family="Inter, Arial, sans-serif" font-size="18" fill="#3a3a42">tk-webb.ru</text>
  <text x="1140" y="585" font-family="Inter, Arial, sans-serif" font-size="18" fill="#3a3a42" text-anchor="end">Тамара Коломейцева</text>
</svg>
